<svg id="visual" viewBox="0 0 900 600" width="900" height="600" xmlns="http://www.w3.org/2000/svg" xmlns:xlink="http://www.w3.org/1999/xlink" version="1.1"><rect x="0" y="0" width="900" height="600" fill="#1E2024"></rect><path d="M0 511L21.5 493.7C43 476.3 86 441.7 128.8 433C171.7 424.3 214.3 441.7 257.2 450C300 458.3 343 457.7 385.8 450.3C428.7 443 471.3 429 514.2 439.5C557 450 600 485 642.8 484C685.7 483 728.3 446 771.2 432.7C814 419.3 857 429.7 878.5 434.8L900 440L900 601L878.5 601C857 601 814 601 771.2 601C728.3 601 685.7 601 642.8 601C600 601 557 601 514.2 601C471.3 601 428.7 601 385.8 601C343 601 300 601 257.2 601C214.3 601 171.7 601 128.8 601C86 601 43 601 21.5 601L0 601Z" fill="#1F2226" stroke-linecap="round" stroke-linejoin="miter"></path></svg>